<?xml version="1.0" encoding="UTF-8" standalone="no"?><!DOCTYPE svg PUBLIC "-//W3C//DTD SVG 1.1//EN" "http://www.w3.org/Graphics/SVG/1.1/DTD/svg11.dtd"><svg width="100%" height="100%" viewBox="0 0 81 80" version="1.1" xmlns="http://www.w3.org/2000/svg" xmlns:xlink="http://www.w3.org/1999/xlink" xml:space="preserve" xmlns:serif="http://www.serif.com/" style="fill-rule:evenodd;clip-rule:evenodd;stroke-linejoin:round;stroke-miterlimit:1.41421;"><rect id="rect3337" x="-10.7" y="-11" width="221.1" height="102" style="fill:none;"/><path id="path3361" d="M79.1,33.2c-1,-2.1 -3,-4.8 -5.6,-7.6c1.3,-8.9 -0.6,-16.2 -5.8,-19.6c-8.8,-5.7 -51.2,-12.6 -63.9,6.9c-12.4,19.2 8,51.5 21.7,63.7c8.5,7.6 23.8,1.5 33.9,-5.9c15.6,-11.3 24.2,-27.8 19.7,-37.5Z" style="fill:#fff;fill-rule:nonzero;"/><path id="path3363" d="M77.5,33.9c-0.9,-2 -3,-4.8 -5.9,-7.8c-1.2,7.4 -4.6,15.9 -9.9,24.2c-11.6,17.9 -28.1,27.8 -36.9,22.1c4.1,8.9 19.1,7.5 33.7,-3.2c14.5,-10.6 23.1,-26.4 19,-35.3Z" style="fill:#ed2482;fill-rule:nonzero;"/><path id="path3365" d="M55.5,31c-3.2,0 -3.9,2.5 -3.9,5.4c0,2.9 0.7,5.4 3.9,5.4c3.2,0 3.9,-2.5 3.9,-5.4c-0.1,-2.9 -0.7,-5.4 -3.9,-5.4Zm-23,-18.5c-3.4,2.5 -5.8,6.6 -7.5,11.5c0.9,0.5 1.6,1.4 1.6,2.6c0,1.6 -1.3,2.9 -2.9,2.9c-0.1,0 -0.2,0 -0.2,0c-0.2,0.9 -0.4,1.8 -0.5,2.7l3.3,0c0,0.3 0,1.8 0,1.8c0,3 -1.4,4.5 -2.6,5.9c-0.9,1 -1.7,1.9 -1.7,3.3c0,1.6 1.2,2.6 3.4,2.6c1.1,0 2.8,-0.4 4.4,-1l0.7,3.7c-2.2,0.7 -4.7,1.2 -6.3,1.2c-0.6,0 -1.6,0 -2.6,-0.3c0.1,10.2 1.5,19.5 3.2,23.2c8.8,5.7 25.3,-4.2 36.9,-22.2c5.3,-8.3 8.7,-16.8 9.9,-24.2c-9.6,-10 -27.8,-21.9 -39.1,-13.7Zm12.3,18.3c-0.6,0.6 -1.7,0.6 -3.1,0.6l-1.3,0l0,14.1c-0.3,0 -4.8,0 -5.1,0c0,-0.4 0,-14.1 0,-14.1c0,0 -4.4,0 -4.8,0c0,-0.3 0,-3.8 0,-4.1c0.4,0 14.8,0 15.2,0c-0.1,1.9 -0.3,3 -0.9,3.5Zm10.7,15.1c-6.1,0 -9,-3.1 -9,-9.5c0,-6.2 3.1,-9.5 9,-9.5c6.1,0 9,3.1 9,9.5c0,6.2 -3.1,9.5 -9,9.5Z" style="fill:#0079ab;fill-rule:nonzero;"/><path id="path3367" d="M66.7,7.5c-8.8,-5.7 -49.8,-11.6 -61.3,6.4c-3.4,5.2 -3.9,11.9 -2.7,18.9c1.2,-3.8 4.4,-6 9.2,-6c1.5,0 3.4,0.3 4.7,0.8c0,0.3 -0.7,3.7 -0.7,4c-1,-0.3 -2.7,-0.8 -3.7,-0.8c-3.2,0 -4.6,1.7 -4.6,5.4c0,2.3 0.5,5.3 4.4,5.3c0.4,0 0.9,0 1.3,-0.1l0.4,4c-0.6,0.1 -1.3,0.2 -1.9,0.2c-2.3,0 -4.2,-0.4 -5.7,-1.2c5.1,13 13.9,24.9 18.7,28c-1.7,-3.7 -3.1,-12.9 -3.2,-23.2c-2.3,-0.5 -4.9,-1.9 -4.9,-5.5c0,-2.8 1.3,-4.3 2.5,-5.7c1.1,-1.2 2,-2.3 2,-4.1c0,0 0,-1.5 0,-1.8l1.7,0c0.2,-0.9 0.3,-1.8 0.6,-2.7c-1.5,-0.1 -2.7,-1.4 -2.7,-2.9c0,-1.6 1.3,-2.9 2.9,-2.9c0.5,0 0.9,0.1 1.3,0.3c1.7,-4.9 4.2,-9 7.5,-11.5c11.2,-8.2 29.4,3.7 39,13.6c1.5,-8.5 0,-15.4 -4.8,-18.5Z" style="fill:#00b6de;fill-rule:nonzero;"/></svg>